# xmcd
#
# Track frame offsets: 
#        150
#        12865
#        26576
#        41904
#        53138
#        66314
#        79940
#        95596
#        107095
#        120035
#        131505
#        145517
#        159200
#        173413
#        185574
#        199177
#        214395
#        226583
#        237130
#        250287
#
# Disc length: 3505 seconds
#
# Revision: 0
# Processed by: cddbd v1.5.2PL0 Copyright (c) Steve Scherf et al.
# Submitted via: ExactAudioCopyFreeDBPlugin 1.0
#
DISCID=040daf14
DTITLE=B.B. King - BLUES GIANT - BEST SELECTIONS 1
DYEAR=2001
DGENRE=Blues
TTITLE0=Ten Long Years
TTITLE1=Three O'clock Blues
TTITLE2=Worried Life Blues
TTITLE3=Days Of Old
TTITLE4=When My Heart Beats Like A Hammer
TTITLE5=Rock Me Baby
TTITLE6=Five Long Years
TTITLE7=Eyesight To The Blind
TTITLE8=Goin' Down Slow
TTITLE9=Mean Ole Frisco
TTITLE10=Let Me Love You
TTITLE11=Sweet Little Angel
TTITLE12=The Letter
TTITLE13=You Know I Go For You
TTITLE14=Sneakin' Around
TTITLE15=The Road I Travek
TTITLE16=King Of Guitar
TTITLE17=Bad Case Of Love
TTITLE18=Gonna Miss You Around Here
TTITLE19=Everyday I Have The Blues
EXTD=
EXTT0=
EXTT1=
EXTT2=
EXTT3=
EXTT4=
EXTT5=
EXTT6=
EXTT7=
EXTT8=
EXTT9=
EXTT10=
EXTT11=
EXTT12=
EXTT13=
EXTT14=
EXTT15=
EXTT16=
EXTT17=
EXTT18=
EXTT19=
PLAYORDER=
